<svg xmlns="http://www.w3.org/2000/svg" width="512" height="512" viewBox="0 0 512 512" id="attraction"><g fill="#ffffff"><path d="M420.719 173.27C439.282 156.771 451 132.73 451 106c0-49.626-40.374-90-90-90s-90 40.374-90 90c0 26.885 11.853 51.05 30.604 67.556a135.613 135.613 0 0 0-45.642 26.88c-13.127-11.755-28.559-20.982-45.527-26.914C229.163 157.017 241 132.867 241 106c0-49.626-40.374-90-90-90s-90 40.374-90 90c0 26.73 11.718 50.771 30.281 67.27C38.233 191.477 0 241.855 0 301v120c0 8.284 6.716 15 15 15h158.088c6.142 6.469 13.028 12.968 20.68 19.492 27.084 23.089 53.836 38.005 54.961 38.629a15 15 0 0 0 14.54 0c1.125-.624 27.877-15.54 54.961-38.629 7.654-6.525 14.541-13.026 20.684-19.496 1.493.006 156.111.004 158.086.004 8.284 0 15-6.716 15-15V301c0-59.145-38.233-109.523-91.281-127.73zM361 46c33.084 0 60 26.916 60 60s-26.916 60-60 60-60-26.916-60-60 26.916-60 60-60zm-210 0c33.084 0 60 26.916 60 60s-26.916 60-60 60-60-26.916-60-60 26.916-60 60-60zM30 406V301c0-57.897 47.103-105 105-105h31c55.583 0 101.209 43.415 104.768 98.114-5.31 3.026-10.274 6.808-14.768 11.308-44.249-44.309-120-9.753-120 54.73 0 14.96 4.663 30.278 13.901 45.848zm226 57.643c-30.583-18.558-90-62.975-90-103.49 0-28.124 22.689-44.674 42.889-44.674 13.877 0 26.145 7.797 33.959 22.047 5.687 10.37 20.619 10.366 26.305 0 9.635-17.57 26.04-25.331 43.889-20.759C329.447 320.97 346 336.015 346 360.152c0 40.518-59.425 84.938-90 103.491zM482 406H362.099C371.337 390.43 376 375.112 376 360.152c0-44.901-37.204-76.398-75.886-74.576-2.654-23.224-11.215-44.678-24.153-62.81C295.214 205.444 319.75 196 346 196h31c57.897 0 105 47.103 105 105z"/></g></svg>