<svg xmlns="http://www.w3.org/2000/svg" width="12" height="13" viewBox="0 0 12 13">
  <g id="color-spot" transform="translate(0.813 1.319)" fill="currentColor">
    <path d="M 2.673141479492188 10.73076629638672 C 2.40144157409668 10.73076629638672 2.159221649169922 10.63560581207275 1.910841584205627 10.43127632141113 C 0.6537315845489502 9.397106170654297 -0.2942484319210052 7.094586372375488 -0.2942484319210052 5.075396060943604 C -0.2942484319210052 4.978346347808838 -0.2980984151363373 4.87057638168335 -0.3021884262561798 4.756486415863037 C -0.3267984092235565 4.068366050720215 -0.3639984130859375 3.028476238250732 0.2987615764141083 1.767576217651367 C 0.5259715914726257 1.335286259651184 0.6764315962791443 0.9327662587165833 0.8091715574264526 0.5776262283325195 C 1.178501605987549 -0.4104637503623962 1.331371545791626 -0.8194537758827209 2.566981554031372 -0.8194537758827209 C 3.238191604614258 -0.8194537758827209 3.541591644287109 -0.5428037643432617 4.206331729888916 0.06333623826503754 C 4.664451599121094 0.4810762405395508 5.234601497650146 1.000956296920776 6.123351573944092 1.591456294059753 C 7.147781372070312 2.272096157073975 7.790481567382812 2.566306352615356 8.259751319885254 2.781136274337769 C 8.803281784057617 3.029956340789795 9.102691650390625 3.167016267776489 9.634781837463379 3.727606296539307 C 10.69647121429443 4.863166332244873 10.63010120391846 5.994906425476074 9.410271644592285 7.50912618637085 C 8.802651405334473 8.277135848999023 8.368361473083496 8.434165954589844 6.752511501312256 9.018436431884766 C 6.589121341705322 9.077506065368652 6.41491174697876 9.140505790710449 6.228651523590088 9.208476066589355 C 5.579141616821289 9.445486068725586 4.997251510620117 9.757196426391602 4.483861446380615 10.03221607208252 C 3.784131526947021 10.4070463180542 3.179831504821777 10.73076629638672 2.673141479492188 10.73076629638672 Z" stroke="none"/>
    <path d="M 2.566981315612793 -0.3194541931152344 C 2.125061988830566 -0.3194541931152344 1.833791732788086 -0.2540140151977539 1.701241493225098 -0.124943733215332 C 1.550801277160645 0.02155590057373047 1.424161911010742 0.3603658676147461 1.277521133422852 0.7526865005493164 C 1.139591217041016 1.121696472167969 0.9832611083984375 1.539946556091309 0.7413415908813477 2.000205993652344 C 0.14044189453125 3.143446445465088 0.1747713088989258 4.103386402130127 0.1974916458129883 4.738606452941895 C 0.2017412185668945 4.857296466827393 0.2057514190673828 4.969406127929688 0.2057514190673828 5.075396060943604 C 0.2057514190673828 6.95996618270874 1.07534122467041 9.09649658203125 2.228501319885254 10.04514598846436 C 2.427321434020996 10.20871639251709 2.564841270446777 10.23076629638672 2.673141479492188 10.23076629638672 C 3.054341793060303 10.23076629638672 3.634031772613525 9.920236587524414 4.247771739959717 9.591465950012207 C 4.77584171295166 9.308586120605469 5.374361515045166 8.987966537475586 6.057251453399658 8.738765716552734 C 6.244001388549805 8.670616149902344 6.418671607971191 8.607456207275391 6.582491397857666 8.548226356506348 C 8.226061820983887 7.953936576843262 8.513081550598145 7.837276458740234 9.01539134979248 7.202346324920654 L 9.018131256103516 7.198885917663574 L 9.020901679992676 7.195456504821777 C 10.07625007629395 5.885406970977783 10.14620113372803 5.008590698242188 9.269610404968262 4.069161891937256 C 8.805788040161133 3.581025123596191 8.569082260131836 3.472641944885254 8.051631927490234 3.235766410827637 C 7.567251682281494 3.014026165008545 6.903871536254883 2.710336208343506 5.846651554107666 2.007916450500488 C 4.92600154876709 1.39621639251709 4.31533145904541 0.839385986328125 3.869441509246826 0.4328060150146484 C 3.202001571655273 -0.1757936477661133 3.026951789855957 -0.3194541931152344 2.566981315612793 -0.3194541931152344 M 2.566981315612793 -1.319454193115234 C 3.990151405334473 -1.319454193115234 4.215521812438965 -0.2764339447021484 6.400051593780518 1.174996376037598 C 8.58458137512207 2.626416206359863 8.901071548461914 2.228316307067871 9.997431755065918 3.383386135101318 C 11.64236164093018 5.142736434936523 10.6344518661499 6.786516189575195 9.799641609191895 7.82279634475708 C 9.037471771240234 8.786186218261719 8.451662063598633 8.929526329040527 6.400051593780518 9.678175926208496 C 4.874241828918457 10.23496437072754 3.733486175537109 11.23076820373535 2.67314624786377 11.23076820373535 C 2.307748794555664 11.23076820373535 1.951987266540527 11.11257171630859 1.593191146850586 10.81740665435791 C 0.193211555480957 9.665706634521484 -0.7942485809326172 7.215676307678223 -0.7942485809326172 5.075396060943604 C -0.7942485809326172 4.435526371002197 -0.9841384887695312 3.133656024932861 -0.1438388824462891 1.534946441650391 C 0.6964712142944336 -0.06377410888671875 0.4487714767456055 -1.319454193115234 2.566981315612793 -1.319454193115234 Z" stroke="none" fill="#dbd3d3"/>
  </g>
</svg>
