<svg xmlns="http://www.w3.org/2000/svg" width="512" height="512" viewBox="0 0 512.004 512.004" id="gender"><g fill="currentColor"><path d="M511.815 489.154c-1.056-9.652-7.294-57.512-30.592-97.696-9.814-16.781-22.916-31.723-38.94-44.41-37.442-30.644-85.685-31.976-90.678-32.029-5.781-.364-12.131-.54-19.956-.552l-2.287-.002v-39.9c12.482-12.221 21.792-27.426 26.942-44.043h4.772c10.469 0 20.302-4.075 27.674-11.462 7.401-7.386 11.477-17.219 11.477-27.688l-.002-.169.002-.171a39.047 39.047 0 0 0-3.428-16.052c-.521-88.168-29.744-111.798-41.233-117.679-7.219-11.153-35.001-46.754-95.465-46.754-1.171 0-7.134 0-8.241.01-36.182.15-69.572 14.538-94.021 40.511-23.994 25.491-37.208 59.691-37.208 96.3v19.254c-5.533 6.898-8.545 15.414-8.545 24.41v.34c0 10.483 4.078 20.319 11.463 27.675 7.386 7.4 17.219 11.476 27.688 11.476h4.444c5.159 16.628 14.474 31.836 26.96 44.057v39.801c-4.799-.004-9.598.257-14.391.499-3.684.026-27.926.53-54.421 8.987-5.261 1.68-8.165 7.306-6.485 12.567 1.679 5.261 7.308 8.169 12.567 6.485 24.283-7.751 46.208-8.034 48.63-8.041 4.924 0 9.845-.502 14.774-.498 3.742 27.332 23.314 50.749 49.384 59.583A72.853 72.853 0 0 0 256 397.788c27.589 0 53.988-16.336 65.941-41.303 3.33-6.956 5.667-14.369 6.726-22.019l2.958.002c7.52.011 13.552.18 18.982.529.202.013.423.02.626.021.45.002 45.389.465 78.437 27.554.046.037.091.074.137.109 14.094 11.148 25.584 24.229 34.132 38.843 16.691 28.79 23.897 63.039 26.621 79.935h-45.002v-20.11c0-5.522-4.478-10-10-10s-10 4.478-10 10v20.11H92.895v-20.11c0-5.522-4.478-10-10-10s-10 4.478-10 10v20.11H21.442c2.723-16.895 9.926-51.138 26.604-79.904a135.289 135.289 0 0 1 7.309-11.188c3.243-4.471 2.25-10.724-2.22-13.967-4.47-3.244-10.723-2.251-13.967 2.219a156.117 156.117 0 0 0-8.407 12.875C7.482 431.642 1.244 479.502.188 489.154c-.132.938-.229 1.819-.171 2.829.295 5.262 4.671 9.474 10.004 9.474h491.98c5.344 0 9.708-4.229 9.986-9.506.056-.996-.042-1.869-.172-2.797zm-131.59-297.54a18.999 18.999 0 0 1-5.615 13.303c-3.608 3.614-8.414 5.604-13.533 5.604h-.707c.375-3.717 1.368-38.625.994-38.631a18.995 18.995 0 0 1 13.26 5.609c3.819 3.814 5.41 8.753 5.601 14.115zm-4.122-36.766a39.098 39.098 0 0 0-14.831-2.972c.093-10.463-6.522-19.883-16.896-22.377-3.535-.85-7.261-.66-10.857-1.087-5.735-.682-11.582-2.06-16.603-5.015a24.11 24.11 0 0 1-3.542-2.547c12.442-5.034 30.106-16.06 40.362-39.676 7.93 8.864 19.422 29.176 22.367 73.674zm-235.471-7.481c0-31.493 11.283-60.825 31.771-82.592 20.651-21.938 48.899-34.092 79.585-34.219 1.128-.01 6.965-.005 8.113-.01 48.538 0 71.227 26.733 77.711 36.147-10.159 31.666-36.626 37.559-40.697 38.282-18.039.097-35.905 3.251-53.122 9.395-17.243 6.168-33.321 15.147-47.778 26.681-.564.449-1.14.884-1.726 1.305-8.801 6.319-20.126 9.52-33.737 9.52-6.737 0-13.557-.391-20.12 1.445zm-2.948 57.529c-3.609-3.596-5.598-8.398-5.598-13.525v-.34c0-5.126 1.988-9.929 5.617-13.545 3.452-3.452 8.164-5.46 13.04-5.585.02 12.851-.422 25.818.913 38.62h-.419c-5.119 0-9.925-1.99-13.553-5.625zm35.432 13.543a90.247 90.247 0 0 1-.656-3.417c-.789-4.739-1.141-9.624-1.486-14.797-.407-9.588-.233-19.239-.229-28.835 13.705-1.378 27.09-6.066 37.934-14.695 12.74-10.164 26.889-18.067 42.045-23.489 13.235-4.723 26.901-7.435 40.716-8.085 6.401 11.839 18.557 19.573 35.312 22.501 2.065.385 4.169.632 6.258.833 1.683.162 1.35.191 8.189.73.038.003.02 29.804-.024 38.78-.165 10.189-.005 20.383-2.285 30.384-3.893 17.195-13.234 32.917-26.46 44.685-47.286 42.048-125.285 17.236-139.314-44.595zm29.525 106.367V289.939c17.481 10.321 37.801 15.353 58.076 14.436a104.836 104.836 0 0 0 48.645-14.449v34.82c-.176 29.247-24.113 53.041-53.36 53.041s-53.185-23.794-53.361-52.981z"/><path d="M233.458 194.145c5.522 0 10-4.478 10-10 0-3.997 1.61-7.701 4.535-10.431 2.921-2.728 6.741-4.086 10.762-3.798 7.037.485 12.71 6.158 13.195 13.195.44 6.383-3.438 12.334-9.432 14.474-8.851 3.158-14.797 11.61-14.797 21.033v6.322c0 5.522 4.478 10 10 10s10-4.478 10-10v-6.322c0-.99.61-1.873 1.52-2.197 14.396-5.138 23.716-19.401 22.662-34.686-1.169-16.944-14.828-30.604-31.772-31.772-9.618-.671-18.769 2.579-25.785 9.13a34.39 34.39 0 0 0-10.888 25.052c0 5.523 4.477 10 10 10z"/><path d="M266.971 252.731c-1.546-3.707-5.258-6.164-9.269-6.166-4.442-.002-8.406 3.065-9.597 7.329-2.441 8.739 7.645 15.978 15.176 10.978 3.935-2.612 5.476-7.783 3.69-12.141z"/><path d="M67.521 358.132c1.668 4.001 5.876 6.574 10.209 6.129 4.33-.445 7.966-3.727 8.821-7.999 1.742-8.704-8.328-15.172-15.552-10.129-3.804 2.655-5.227 7.728-3.478 11.999z"/></g></svg>