<svg xmlns="http://www.w3.org/2000/svg" width="512" height="512" viewBox="-1 0 512 512" id="kink"><g fill="currentColor"><path d="M128 208h16v32h-16zm0 0"/><path d="M425.602 33.922L398.398 17.07A110.927 110.927 0 0 0 339.336 0c-2.473 0-4.902.078-7.031.246-2.13.168-4.153.266-6.137.531-1.543.184-3 .375-3.879.559-1.219.144-2.402.375-3.602.61l-.91.183a97.442 97.442 0 0 0-15.418 4.117c-1.597.531-3.062 1.05-4.632 1.656-1.965.801-3.934 1.602-5.993 2.57-2.054.97-4.14 2.024-6.191 3.137-.465.254-.969.559-1.465.797l-.336.203-1.183.68a109.56 109.56 0 0 0-5.239 3.262c-.656.433-1.28.906-1.922 1.351-.796.547-1.597 1.082-2.32 1.602-.293.2-.566.457-.863.664-.649.48-1.328.922-1.965 1.418l-38.035-10.274a23.825 23.825 0 0 0-26.613 10.458L195.434 40H160c0-13.254-10.746-24-24-24s-24 10.746-24 24v16a24.003 24.003 0 0 0 16 22.527v18.946A24.003 24.003 0 0 0 112 120v16a24.003 24.003 0 0 0 16 22.527V176h-27.93a24.11 24.11 0 0 0-23.078 17.406l-11.68 40.875C25.488 252.457-.047 292.223 0 336v32c.066 61.828 50.172 111.934 112 112h48c61.828-.066 111.934-50.172 112-112v-32c0-1.879-.078-3.848-.168-5.71-.09-1.864-.258-3.778-.45-5.856-.175-1.602-.359-3.204-.566-4.313-.183-1.465-.375-2.855-.625-4.121l-.918-4.496c-.28-1.297-.578-2.574-.855-3.559a100.37 100.37 0 0 0-3.203-10.336c-.613-1.77-1.32-3.53-2.04-5.242a111.82 111.82 0 0 0-17.35-28.199 19.635 19.635 0 0 0-1.962-2.297 102.693 102.693 0 0 0-11.199-11 24.051 24.051 0 0 0-1.824-1.504 62.13 62.13 0 0 0-5.106-4.039c-1.98-1.418-4-2.808-6.015-4a14.408 14.408 0 0 0-1.598-1.047c-.684-.449-1.39-.863-2.121-1.234-1.434-.91-2.879-1.656-4.29-2.399-.151-.082-.32-.128-.472-.207-.148-.082-.328-.195-.476-.265A112.405 112.405 0 0 0 200 231.473c-.535-.2-1.023-.489-1.55-.68l-11.395-37.73A23.846 23.846 0 0 0 164.12 176H144v-17.473A24.003 24.003 0 0 0 160 136v-16a24.003 24.003 0 0 0-16-22.527V78.527A24.003 24.003 0 0 0 160 56h25.441l-13.793 22.078a24.098 24.098 0 0 0 2.536 28.8l28.527 31.61c-5.738 43.39 14.45 86.13 51.61 109.254l27.128 16.969c52.504 32.7 121.567 16.738 154.399-35.68l25.441-40.719c32.645-52.511 16.688-121.535-35.687-154.39zM112 464c-52.996-.059-95.941-43.004-96-96v-32c-.043-37.332 21.625-71.281 55.504-86.969l2.082 1.25a151.508 151.508 0 0 0 19.727 9.887C56.831 271.82 32.05 305.703 32 344v16c.059 48.578 39.422 87.941 88 88h1.473a22.452 22.452 0 0 0 0 16zm8-192h32c39.746.043 71.957 32.254 72 72v16c-.043 39.746-32.254 71.957-72 72h-32c-39.746-.043-71.957-32.254-72-72v-16c.043-39.746 32.254-71.957 72-72zm44.121-80a8.06 8.06 0 0 1 7.656 5.688l12.559 41.64a8.01 8.01 0 0 0 5.2 5.297 95.13 95.13 0 0 1 11.632 4.695c.879.414 1.785.801 2.648 1.239a41.207 41.207 0 0 1 3.832 2.129c.247.16.512.312.801.449.25.105.496.23.727.375.32.242.664.449 1.023.625.375.304.778.57 1.2.8a56.932 56.932 0 0 1 5.113 3.375 49.61 49.61 0 0 1 4.105 3.29c.43.394.887.757 1.367 1.093l.641.57a87.454 87.454 0 0 1 9.598 9.462c.418.425.804.878 1.152 1.363a96.835 96.835 0 0 1 15.137 24.504 69.437 69.437 0 0 1 1.68 4.308 90.57 90.57 0 0 1 2.8 9.098c.274.969.488 1.945.703 2.91l.801 4c.2 1.027.336 2.043.527 3.531.215 1.184.344 2.399.473 3.567.152 1.601.305 3.273.375 4.93.074 1.656.129 3.46.129 5.062v32c-.059 52.996-43.004 95.941-96 96h-16a8 8 0 0 1 0-16h8c48.578-.059 87.941-39.422 88-88v-16c-.059-48.578-39.422-87.941-88-88h-7.566v-.2a137.145 137.145 0 0 1-62.625-19.241l-.442-.262 11-38.488A8.003 8.003 0 0 1 100.07 192zM144 136a8 8 0 0 1-16 0v-16a8 8 0 0 1 16 0zm0-80a8 8 0 0 1-16 0V40a8 8 0 0 1 16 0zm278.258 164.55c-28.16 44.907-87.328 58.583-132.336 30.595l-27.121-16.97c-31.711-19.738-49.016-56.144-44.297-93.198l2.113-1.082a152.363 152.363 0 0 0 18.801-11.43c-9.445 37.101 6.184 76.05 38.652 96.336l13.602 8.48c41.223 25.711 95.48 13.184 121.258-28l.797-1.234a22.856 22.856 0 0 0 13.601 8.504zM280.574 84.896c21.09-33.688 65.473-43.942 99.203-22.918l13.598 8.48c33.688 21.086 43.945 65.465 22.93 99.2l-4.243 6.784v.047l-12.734 20.313c-21.094 33.68-65.465 43.933-99.2 22.926l-13.6-8.48c-33.743-21.071-44-65.517-22.903-99.247l16.887-27.031.062-.106zm167.13 94.937l-8.49 13.602c-2.339 3.746-7.277 4.882-11.023 2.543a8 8 0 0 1-2.543-11.016l4.23-6.777c25.696-41.227 13.169-95.47-28-121.254l-13.597-8.48c-41.226-25.692-95.469-13.165-121.258 28a136.443 136.443 0 0 1-53.664 49.23l-.457.222-26.84-29.742a8.053 8.053 0 0 1-.847-9.601l33.93-54.32a7.993 7.993 0 0 1 8.878-3.485L270 40.16a8.086 8.086 0 0 0 7.258-1.601c1.805-1.528 3.726-2.934 5.652-4.329 1.93-1.39 3.809-2.605 5.785-3.824 1.067-.644 2.082-1.36 3.16-1.965.442-.257.899-.539 1.313-.753a140.891 140.891 0 0 1 5.328-2.711c1.711-.832 3.344-1.489 5.055-2.153 1.304-.52 2.547-.953 4-1.441a83.6 83.6 0 0 1 13.113-3.52l1.176-.23c.746-.145 1.496-.313 2.824-.48 1.113-.215 2.223-.337 3.488-.497 1.602-.207 3.2-.343 5.106-.433 1.902-.086 3.734-.215 5.597-.215a94.483 94.483 0 0 1 51.032 14.64l27.203 16.864c44.894 28.156 58.578 87.308 30.613 132.32zm0 0"/><path d="M213.66 71.441l8.485-13.574 27.136 16.961-8.484 13.574zm0 0"/></g></svg>