<svg xmlns="http://www.w3.org/2000/svg" width="512" height="512" viewBox="0 0 512 512" id="sexuality"><g fill="currentColor"><path d="M512 267.558c0-23.914-13.951-44.627-34.14-54.438v-30.993c0-4.142-3.357-7.5-7.5-7.5s-7.5 3.358-7.5 7.5v26.027a60.54 60.54 0 0 0-11.347-1.083H303.761c50.623-31.348 78.146-67.899 78.146-104.616a74.28 74.28 0 0 0-.135-4.232h54.111c14.875 0 26.978 12.102 26.978 26.977v26.94c0 4.142 3.357 7.5 7.5 7.5s7.5-3.358 7.5-7.5V125.2c0-23.146-18.831-41.977-41.978-41.977h-56.561c-2.944-10.678-8.343-20.444-15.906-28.494-12.399-13.198-29.521-20.466-48.212-20.466-30.249 0-49.973 14.675-59.203 23.646-9.23-8.97-28.954-23.646-59.204-23.646-18.691 0-35.812 7.268-48.21 20.466-7.563 8.05-12.962 17.816-15.907 28.494H76.117c-23.146 0-41.977 18.831-41.977 41.977v87.92C13.951 222.931 0 243.644 0 267.558v47.771c0 4.143 3.358 7.5 7.5 7.5s7.5-3.357 7.5-7.5v-47.771c0-25.081 20.405-45.486 45.486-45.486h391.027c25.081 0 45.486 20.405 45.486 45.486v109.074H15v-31.317c0-4.143-3.358-7.5-7.5-7.5s-7.5 3.357-7.5 7.5v73.388a7.5 7.5 0 0 0 7.5 7.5h16.886v44.032a7.5 7.5 0 0 0 7.5 7.5h41.041a7.5 7.5 0 0 0 7.5-7.5v-44.032h351.147v44.032c0 4.143 3.357 7.5 7.5 7.5h41.04c4.143 0 7.5-3.357 7.5-7.5v-44.032H504.5c4.143 0 7.5-3.357 7.5-7.5v-34.571zM49.14 208.154V125.2c0-14.875 12.102-26.977 26.977-26.977h54.111a74.309 74.309 0 0 0-.135 4.232c0 36.718 27.523 73.269 78.146 104.616H60.486a60.612 60.612 0 0 0-11.346 1.083zm189.489-1.082c-81.341-42.218-93.536-83.616-93.536-104.616 0-29.455 21.701-53.192 51.703-53.192 34.775 0 52.426 23.262 53.141 24.227a7.501 7.501 0 0 0 12.125 0c.177-.242 18.052-24.227 53.141-24.227 14.507 0 27.746 5.588 37.279 15.736 9.35 9.953 14.425 23.297 14.425 37.456 0 21-12.194 62.398-93.535 104.616zM65.426 462.737h-26.04v-36.532h26.041v36.532zm407.188 0h-26.04v-36.532h26.04zM497 411.204H15v-19.571h482z"/></g></svg>