<?xml version="1.0" encoding="utf-8"?>
<!-- Generator: Adobe Illustrator 24.1.2, SVG Export Plug-In . SVG Version: 6.00 Build 0)  -->
<svg version="1.1" id="Ebene_1" xmlns="http://www.w3.org/2000/svg" xmlns:xlink="http://www.w3.org/1999/xlink" x="0px" y="0px"
	 viewBox="0 0 481 481" style="enable-background:new 0 0 481 481;" xml:space="preserve">
<style type="text/css">
	.st0{fill:#FFFFFF;}
</style>
<g>
	<path class="st0" d="M358.8,296c-24,0-45.3,11.4-59,29.1l-114.4-63.9c2.7-7.7,4.2-16,4.2-24.6c0-8.7-1.5-16.9-4.2-24.7l114.4-63.8
		c13.6,17.7,35,29.2,59.1,29.2c41,0,74.5-33.4,74.5-74.5s-33.4-74.5-74.5-74.5s-74.5,33.4-74.5,74.5c0,8.7,1.5,17,4.2,24.7
		l-114.3,63.8c-13.6-17.8-35-29.2-59.1-29.2c-41,0-74.5,33.4-74.5,74.5s33.5,74.5,74.6,74.5c24,0,45.5-11.5,59.2-29.3l114.4,63.9
		c-2.8,7.8-4.3,16.2-4.3,24.8c0,41,33.4,74.5,74.5,74.5s74.5-33.4,74.5-74.5S399.9,296,358.8,296L358.8,296z M358.8,51.8
		c28.2,0,51.1,22.9,51.1,51.1s-22.9,51.1-51.1,51.1c-28.2,0-51.1-22.9-51.1-51.1S330.7,51.8,358.8,51.8z M115.2,287.7
		c-28.2,0-51.1-22.9-51.1-51.1s22.9-51.1,51.1-51.1s51.1,22.9,51.1,51.1S143.3,287.7,115.2,287.7z M358.8,421.5
		c-28.2,0-51.1-22.9-51.1-51.1c0-28.2,22.9-51.1,51.1-51.1c28.2,0,51.1,22.9,51.1,51.1C409.9,398.6,387,421.5,358.8,421.5z"/>
</g>
</svg>
