<svg
  version="1.1"
  id="share"
  xmlns="http://www.w3.org/2000/svg"
  x="0"
  y="0"
  viewBox="0 0 481 481"
  xml:space="preserve"
>
  <path
    fill="currentColor"
    d="M358.8 296c-24 0-45.3 11.4-59 29.1l-114.4-63.9c2.7-7.7 4.2-16 4.2-24.6 0-8.7-1.5-16.9-4.2-24.7l114.4-63.8c13.6 17.7 35 29.2 59.1 29.2 41 0 74.5-33.4 74.5-74.5S400 28.3 358.9 28.3s-74.5 33.4-74.5 74.5c0 8.7 1.5 17 4.2 24.7l-114.3 63.8c-13.6-17.8-35-29.2-59.1-29.2-41 0-74.5 33.4-74.5 74.5s33.5 74.5 74.6 74.5c24 0 45.5-11.5 59.2-29.3l114.4 63.9c-2.8 7.8-4.3 16.2-4.3 24.8 0 41 33.4 74.5 74.5 74.5s74.5-33.4 74.5-74.5-33.7-74.5-74.8-74.5zm0-244.2c28.2 0 51.1 22.9 51.1 51.1S387 154 358.8 154c-28.2 0-51.1-22.9-51.1-51.1s23-51.1 51.1-51.1zM115.2 287.7c-28.2 0-51.1-22.9-51.1-51.1s22.9-51.1 51.1-51.1 51.1 22.9 51.1 51.1-23 51.1-51.1 51.1zm243.6 133.8c-28.2 0-51.1-22.9-51.1-51.1 0-28.2 22.9-51.1 51.1-51.1 28.2 0 51.1 22.9 51.1 51.1 0 28.2-22.9 51.1-51.1 51.1z"
  />
</svg>
