<svg xmlns="http://www.w3.org/2000/svg" width="19.324" height="19.324" viewBox="0 0 19.324 19.324"><g transform="translate(0 0)"><path d="M16.5,2.827a9.667,9.667,0,1,0,0,13.671A9.678,9.678,0,0,0,16.5,2.827ZM13.474,13.474a.744.744,0,0,1-1.051,0L9.662,10.713,6.77,13.605a.744.744,0,1,1-1.052-1.052L8.611,9.662,5.85,6.9A.744.744,0,1,1,6.9,5.85l2.76,2.761,2.629-2.629a.744.744,0,1,1,1.052,1.052L10.713,9.662l2.761,2.761A.744.744,0,0,1,13.474,13.474Z" transform="translate(0 0)" fill="rgba(255,255,255,0.74)"/></g></svg>