<svg xmlns="http://www.w3.org/2000/svg" viewBox="0 0 5314 3188">
  <defs>
    <clipPath id="a">
      <path d="M0 2551.181h4251.97V0H0v2551.181z" />
    </clipPath>
  </defs>
  <path d="M0 3188h5314.96V-.001H0v3188.976z" />
  <g clip-path="url(#a)" transform="matrix(1.25 0 0 -1.25 0 3188)">
    <path
      d="M2882.53 712.321l-375.85-191.504-242.776 346.72-471.833 673.847v.004H0v488.976h2046.614l617.837-882.362 1587.52 808.882v-548.521L2886.44 712.592"
      fill="#fcc800"
    />
    <path
      d="M2882.528 701.642L2506.68 510.138l-242.776 346.72-471.833 673.847v.004H0v-488.976h1537.525v-.003l568.61-812.058L2266.95.002 2582.541 0l146.13 74.456 1523.298 776.16v547.068L2886.44 701.913l1365.53 679.144v16.628"
    />
    <path
      d="M0 1588.404h1821.584v-.003l703.27-1004.374 1726.028 879.456 1.088-126.702-1763.462-898.53-725.958 1036.775v-.003L0 1475.018v113.386-113.386m4251.97-688.105L2706.364-.613l-248.695 1.617 1794.3 914.242V786.913z"
      fill="#d32011"
    />
    <path
      d="M1508.012 986.042H0v113.386h1567.036L2336.16 1.003h-138.418l-689.731 985.038m572.709 1091.216H0v-113.386h2021.696v.002l627.97-896.835 1602.303 816.417v127.256L2686.01 1212.815l-605.29 864.444L0 2077.257v-113.386"
      fill="#d32011"
    />
  </g>
</svg>
